<?xml version="1.0" encoding="UTF-8" standalone="no"?>
<svg
   viewBox="0 0 500 500"
   width="500"
   height="500"
   version="1.1"
   id="svg4"
   sodipodi:docname="app-icon.svg"
   inkscape:version="1.4.3 (0d15f75, 2025-12-25)"
   inkscape:export-filename="funlet-icon-flat iOS.png"
   inkscape:export-xdpi="96"
   inkscape:export-ydpi="96"
   xmlns:inkscape="http://www.inkscape.org/namespaces/inkscape"
   xmlns:sodipodi="http://sodipodi.sourceforge.net/DTD/sodipodi-0.dtd"
   xmlns="http://www.w3.org/2000/svg"
   xmlns:svg="http://www.w3.org/2000/svg">
  <defs
     id="defs4" />
  <sodipodi:namedview
     id="namedview4"
     pagecolor="#000000"
     bordercolor="#000000"
     borderopacity="0.25"
     inkscape:showpageshadow="2"
     inkscape:pageopacity="0.0"
     inkscape:pagecheckerboard="true"
     inkscape:deskcolor="#d1d1d1"
     inkscape:zoom="0.41311519"
     inkscape:cx="217.85691"
     inkscape:cy="145.23794"
     inkscape:window-width="1280"
     inkscape:window-height="775"
     inkscape:window-x="0"
     inkscape:window-y="29"
     inkscape:window-maximized="1"
     inkscape:current-layer="g4"
     inkscape:export-bgcolor="#ffffff00"
     showborder="false"
     showguides="false"
     showgrid="false">
    <inkscape:grid
       id="grid2"
       units="px"
       originx="0"
       originy="0"
       spacingx="1"
       spacingy="1"
       empcolor="#0099e5"
       empopacity="0.30196078"
       color="#0099e5"
       opacity="0.14901961"
       empspacing="5"
       enabled="true"
       visible="false" />
  </sodipodi:namedview>
  <g
     transform="matrix(0.070225,0,0,-0.071327,16.320006,501.20277)"
     stroke="none"
     id="g4"
     style="display:inline">
    <rect
       style="display:none;fill:#0d1b2a;stroke-width:190.515"
       id="rect1"
       width="9227.4834"
       height="9084.9189"
       x="-1287.7018"
       y="-8062.0083"
       transform="scale(1,-1)"
       ry="0"
       inkscape:label="backgroundTile" />
    <rect
       style="display:none;fill:#0d1b2a;stroke-width:452.177"
       id="rect1-7"
       width="21901.033"
       height="21562.662"
       x="-7583.5679"
       y="-14306.296"
       transform="scale(1,-1)"
       ry="0"
       inkscape:label="backgroundSplashScreen" />
    <path
       d="M 3977.7209,6805.9577 C 3958.7209,6803.9577 3846,6795 3785,6790 c -421,-41 -816,-191 -1120,-426 -90,-70 -230,-211 -291,-294 -113,-154 -208,-359 -243,-525 -33,-163 -35,-195 -36,-697 0,-498 0,-507 -21,-535 -40,-54 -19,-53 -739,-53 -390,0 -370.72803,-5 -411.72803,-10 -189,-27 -308,-111 -367,-259 -22,-53 -23,-71 -26,-381 -4,-350 2,-408 45,-493 49,-97 150,-176 269,-210 26,-7 -49.27197,-13 436.72803,-16 l 726,-6 35,-27 c 20,-15 38,-40 42,-55 4,-15 9,-505 12,-1088 4,-861 8,-1072 19,-1122 53,-233 230,-354 560,-383 145,-13 723,-13 900,0 333,25 496,125 571,350 17,52 19,121 24,1150 4,886 8,1099 18,1118 8,13 32,32 55,43 40,18 157.2447,19 399.8196,19 199.3536,0 1033.1596,10.0172 1170,11 110.0004,6.4032 274,115 320,222 39,90 43,140 39,482 -3,315 -4,332 -26,387 -54.7502,151.8549 -198.3029,255.0645 -337,263 l -1150,5 c -271.4209,1.1333 -408.8196,7 -430.8196,19 -57,29 -59,46 -56,591 3,454 5,498 21,523 35,53 64,60 297,69 843,33 1178,117 1421,358 162,162 232,357 233,655 1,152 0,163 -24,210 -38,74 -90,97 -240,106 -127,8 -1846.2791,21.9577 -1902.2791,14.9577 z"
       id="path1"
       sodipodi:nodetypes="cccccccsccccccccsccccccccsccccccccccccccc"
       style="display:inline;fill:#3eb489;fill-opacity:1;stroke:#23785a;stroke-width:171.97;stroke-dasharray:none;stroke-opacity:1"
       inkscape:label="main" />
    <!-- Slots in same coordinate space (potrace units, flipped) -->
    <rect
       x="813.2262"
       y="3339.5876"
       width="1025.2759"
       height="420.59808"
       rx="52.203457"
       id="rect2"
       style="display:inline;fill:#23785a;fill-opacity:1;stroke-width:2.02585"
       inkscape:label="insetLeft" />
    <rect
       x="4862.6719"
       y="3339.5876"
       width="1025.2759"
       height="420.59808"
       rx="50.357361"
       id="rect3"
       style="display:inline;fill:#23785a;fill-opacity:1;stroke-width:1.98971"
       inkscape:label="insetRight" />
    <rect
       x="-1486.5085"
       y="2924.2625"
       width="1009.4354"
       height="426.83069"
       rx="49.579342"
       id="rect3-3"
       style="display:inline;fill:#23785a;fill-opacity:1;stroke-width:1.98886"
       inkscape:label="insetBottom"
       transform="matrix(4.0385585e-4,-0.99999992,0.99999996,2.7232481e-4,0,0)"
       inkscape:export-filename="splash.png"
       inkscape:export-xdpi="174.60747"
       inkscape:export-ydpi="174.60747" />
  </g>
</svg>
